# xmcd
#
# Track frame offsets:
# 150
# 15303
# 32554
# 47702
# 59555
# 72377
# 89161
# 100345
# 122066
# 132896
# 141498
# 155898
# 167859
# 185264
# 193058
# 208358
#
# Disc length: 2892 seconds
#
#
# Revision: 0
# Processed by: cddbd v1.5PL3 Copyright (c) Steve Scherf et al.
# Submitted via: FreeRIP 2.40 
#
DISCID=f80b4a10
DTITLE=Alfie Smith - Buckshot Blues
DYEAR=2003
DGENRE=Blues
TTITLE0=Buck Shot Blues
TTITLE1=Wait For Me Alone
TTITLE2=Possession Blues
TTITLE3=Perfect Love Blues
TTITLE4=Sign Of Life
TTITLE5=William Stanley
TTITLE6=Big Road Blues
TTITLE7=Pretty Little Girl
TTITLE8=Summer Of Love Is Gone
TTITLE9=Born To Lose
TTITLE10=Lonely One
TTITLE11=Wade In The Water
TTITLE12=Lucky
TTITLE13=Domestication Blues
TTITLE14=Hard Time And Harder Places
TTITLE15=Not Such A Brave New World
EXTD=http://www.geocities.com/bigdumox/
EXTT0=copyright Alfie Smith
EXTT1=copyright Alfie Smith
EXTT2=copyright Alfie Smith
EXTT3=copyright Alfie Smith
EXTT4=copyright Alfie Smith
EXTT5=copyright Alfie Smith
EXTT6=trad arr Alfie Smith
EXTT7=copyright Alfie Smith
EXTT8=copyright Alfie Smith
EXTT9=copyright Alfie Smith
EXTT10=copyright Alfie Smith
EXTT11=trad arr Alfie Smith
EXTT12=copyright Alfie Smith
EXTT13=copyright Alfie Smith/Linda Fraser
EXTT14=copyright Alfie Smith
EXTT15=copyright Alfie Smith
PLAYORDER=
